<svg viewBox="0 0 231 180" version="1.1" xmlns="http://www.w3.org/2000/svg">
  <path d="M230.736732,69 C230.736732,69 225.386698,79.6433503 198.685813,96.4735118 C187.314632,103.634814 163.679373,111.252417 133.305713,114.1911 C116.901179,115.781335 86.7026386,114.491105 73.7490968,114.491105 C60.7211034,114.491105 54.7455705,117.233106 43.0744849,130.393454 L0,178.956461 C0,178.956461 14.9191707,179.025168 26.1791992,179.025168 C37.4397519,179.025168 107.878895,183.121387 139.131818,174.520377 C240.629367,146.611019 230.736732,69 230.736732,69" id="lower" fill="#148EE0"></path>
  <path d="M228.109785,37.7193248 C232.997403,8.1289717 216.165599,0 216.165599,0 C216.165599,0 216.874245,24.0847228 172.310276,29.192814 C132.749845,33.7236138 0,30.3093623 0,30.3093623 L42.6646287,78.9070873 C54.2175123,92.0805856 60.3540474,93.6050935 73.3488777,94.5215696 C86.3400363,95.3854227 115.001678,95.0790623 134.441995,93.6056145 C155.687236,91.989928 185.962348,85.1061968 206.439671,69.35677 C216.933518,61.2908419 226.067246,50.076383 228.109785,37.7193248" id="upper" fill="#54BBFF"></path>
</svg>
